<?xml version="1.0" encoding="UTF-8" standalone="no"?>
<!-- Created with Inkscape (http://www.inkscape.org/) -->

<svg
   width="210mm"
   height="297mm"
   viewBox="0 0 210 297"
   version="1.1"
   id="svg5"
   xml:space="preserve"
   inkscape:version="1.2.2 (b0a8486541, 2022-12-01)"
   sodipodi:docname="template-cropmarks.svg"
   xmlns:inkscape="http://www.inkscape.org/namespaces/inkscape"
   xmlns:sodipodi="http://sodipodi.sourceforge.net/DTD/sodipodi-0.dtd"
   xmlns="http://www.w3.org/2000/svg"
   xmlns:svg="http://www.w3.org/2000/svg"><sodipodi:namedview
     id="namedview7"
     pagecolor="#ffffff"
     bordercolor="#000000"
     borderopacity="0.25"
     inkscape:showpageshadow="2"
     inkscape:pageopacity="0.0"
     inkscape:pagecheckerboard="0"
     inkscape:deskcolor="#d1d1d1"
     inkscape:document-units="mm"
     showgrid="false"
     inkscape:zoom="1.0707934"
     inkscape:cx="331.06293"
     inkscape:cy="734.03516"
     inkscape:window-width="1920"
     inkscape:window-height="1141"
     inkscape:window-x="0"
     inkscape:window-y="0"
     inkscape:window-maximized="1"
     inkscape:current-layer="layer1" /><defs
     id="defs2"><clipPath
       clipPathUnits="userSpaceOnUse"
       id="clipPath1149"><path
         id="path1151"
         style="font-weight:900;font-size:67.814px;font-family:'Noto Sans';-inkscape-font-specification:'Noto Sans Heavy';text-align:center;text-anchor:middle;fill:#ffffff;stroke-width:89.2482"
         d="m 89.452939,-666.70142 30.742821,108.62593 h 29.95166 l 30.87461,-108.62593 h -28.49956 l -13.06277,55.378 c -0.52777,2.02851 -1.0994,4.66559 -1.71514,7.91115 -0.52778,3.14418 -1.05558,6.33884 -1.58336,9.58443 -0.43982,3.14417 -0.74753,5.73071 -0.92346,7.75922 -0.088,-2.02851 -0.44002,-4.66556 -1.05575,-7.91115 -0.52778,-3.24559 -1.09941,-6.49128 -1.71514,-9.73688 -0.61575,-3.24559 -1.14356,-5.88264 -1.58337,-7.91114 l -12.7987,-55.07363 z m 97.065911,0.0863 -14.87661,53.8701 h 12.02252 l 3.70468,-14.33452 h 13.15682 l 2.16266,14.59082 h 11.96568 l -13.56145,-54.1264 z m 7.37216,8.00209 c 0.18903,1.08503 0.45401,2.48645 0.79426,4.20439 0.34025,1.71794 0.68035,3.39079 1.02061,5.0183 0.34025,1.58234 0.60472,2.80281 0.79375,3.6618 l 1.75804,7.93441 h -8.61963 l 1.75803,-7.93441 c 0.22684,-1.08503 0.49129,-2.41847 0.79375,-4.00079 0.34025,-1.58234 0.66182,-3.1877 0.96428,-4.8152 0.34025,-1.62753 0.58568,-2.98347 0.73691,-4.0685 z m -23.99337,51.92292 -13.21366,48.62287 h 12.02252 12.9496 1.32188 l 2.87011,-10.56058 h -8.49457 -5.67201 l 10.34356,-38.06229 z m 32.6533,0.25426 -13.21366,48.36861 h 0.0486 l -10e-4,0.003 h 9.90586 17.18293 11.96568 l -2.91662,-10.5973 h -23.29522 l 2.4877,-9.15501 h 18.28726 l -2.31045,-8.3943 h -13.69581 l 2.63963,-9.71209 h 8.38295 l -2.89284,-10.51097 H 212.492 l 0.0698,-0.003 z" /></clipPath><clipPath
       clipPathUnits="userSpaceOnUse"
       id="clipPath6722"><rect
         style="fill:none;stroke:#ff0000;stroke-width:0.837258"
         id="rect6724"
         width="553.27985"
         height="276.70383"
         x="396.17514"
         y="-340.0831" /></clipPath><clipPath
       clipPathUnits="userSpaceOnUse"
       id="clipPath6995"><rect
         style="fill:none;stroke:#ff0000;stroke-width:2.58387"
         id="rect6997"
         width="245.46721"
         height="64.596634"
         x="-551.09906"
         y="-206.04974" /></clipPath><clipPath
       clipPathUnits="userSpaceOnUse"
       id="clipPath6722-3"><rect
         style="fill:none;stroke:#ff0000;stroke-width:0.837258"
         id="rect6724-6"
         width="553.27985"
         height="276.70383"
         x="396.17514"
         y="-340.0831" /></clipPath><clipPath
       clipPathUnits="userSpaceOnUse"
       id="clipPath7093"><path
         id="path7095"
         style="font-weight:900;font-size:67.814px;font-family:'Noto Sans';-inkscape-font-specification:'Noto Sans Heavy';text-align:center;text-anchor:middle;fill:#ffffff;stroke-width:135.305"
         d="m 653.42705,-325.60251 46.60782,164.68299 h 45.40837 l 46.80764,-164.68299 h -43.20692 l -19.80388,83.95612 c -0.80012,3.07533 -1.66674,7.0733 -2.60026,11.99372 -0.80012,4.7668 -1.6003,9.61007 -2.40049,14.53054 -0.66674,4.76675 -1.13327,8.68809 -1.39998,11.76342 -0.13339,-3.07533 -0.66711,-7.07325 -1.60057,-11.99372 -0.80013,-4.92053 -1.6668,-9.84115 -2.60026,-14.76166 -0.93351,-4.92053 -1.7337,-8.91845 -2.4005,-11.99372 l -19.40353,-83.4947 z m 147.1573,0.1308 -22.55373,81.67011 h 18.22678 l 5.61652,-21.73197 h 19.94647 l 3.2787,22.12053 h 18.14063 l -20.55987,-82.05867 z m 11.17665,12.13165 c 0.28633,1.64495 0.68827,3.76958 1.20414,6.37405 0.51581,2.60454 1.0314,5.14063 1.54727,7.60802 0.51585,2.39895 0.91682,4.24924 1.20336,5.55152 l 2.66529,12.029 h -13.06782 l 2.66524,-12.029 c 0.34402,-1.64495 0.74484,-3.66653 1.20338,-6.06543 0.51585,-2.3989 1.00339,-4.83271 1.46193,-7.3001 0.51581,-2.46744 0.88793,-4.52311 1.11721,-6.16806 z m -36.37529,78.718 -20.03268,73.71499 h 18.22683 19.63228 2.00407 l 4.35125,-16.01039 h -12.87826 -8.59905 l 15.68141,-57.7046 z m 49.50419,0.38573 -20.03262,73.32947 h 0.0736 l -10e-4,0.004 h 15.01786 26.05028 18.14063 l -4.42176,-16.06612 h -35.31685 l 3.77149,-13.87949 h 27.72448 l -3.50277,-12.72624 h -20.76359 l 4.00184,-14.72407 h 12.70899 l -4.38571,-15.93521 h -3.99319 l 0.10614,-0.004 z" /></clipPath><clipPath
       clipPathUnits="userSpaceOnUse"
       id="clipPath347"><path
         d="M 0,841.89 H 595.276 V 0 H 0 Z"
         id="path345" /></clipPath><clipPath
       clipPathUnits="userSpaceOnUse"
       id="clipPath347-3"><path
         d="M 0,841.89 H 595.276 V 0 H 0 Z"
         id="path345-6" /></clipPath><marker
       id="Arrow2Sstart"
       inkscape:isstock="true"
       inkscape:stockid="Arrow2Sstart"
       orient="auto"
       refX="0"
       refY="0"
       style="overflow:visible"><path
         d="M 8.72,4.03 -2.21,0.02 8.72,-4 c -1.75,2.37 -1.74,5.62 0,8.03 z"
         id="Arrow2SstartPath"
         style="fill:#000000;fill-opacity:1;stroke:none"
         transform="matrix(0.3,0,0,0.3,-0.69,0)" /></marker><marker
       id="Arrow2Send"
       inkscape:isstock="true"
       inkscape:stockid="Arrow2Send"
       orient="auto"
       refX="0"
       refY="0"
       style="overflow:visible"><path
         d="M 8.72,4.03 -2.21,0.02 8.72,-4 c -1.75,2.37 -1.74,5.62 0,8.03 z"
         id="Arrow2SendPath"
         style="fill:#000000;fill-opacity:1;stroke:none"
         transform="matrix(-0.3,0,0,-0.3,0.69,0)" /></marker></defs><g
     inkscape:label="Ebene 1"
     inkscape:groupmode="layer"
     id="layer1"><g
       id="g341"
       transform="matrix(0.35277777,0,0,-0.35277777,-1.1026734e-7,297.00009)"
       sodipodi:insensitive="true"><g
         id="g343"
         clip-path="url(#clipPath347-3)"><g
           id="g349"
           transform="translate(70.8662,666.1416)"><path
             d="m 0,0 c 0,-7.828 -6.346,-14.173 -14.173,-14.173 -7.828,0 -14.174,6.345 -14.174,14.173 0,7.828 6.346,14.173 14.174,14.173 C -6.346,14.173 0,7.828 0,0"
             style="fill:#231f20;fill-opacity:1;fill-rule:nonzero;stroke:none"
             id="path351" /></g><g
           id="g353"
           transform="translate(552.7563,70.8662)"><path
             d="m 0,0 c 0,-7.828 -6.346,-14.173 -14.174,-14.173 -7.827,0 -14.173,6.345 -14.173,14.173 0,7.827 6.346,14.173 14.173,14.173 C -6.346,14.173 0,7.827 0,0"
             style="fill:#231f20;fill-opacity:1;fill-rule:nonzero;stroke:none"
             id="path355" /></g><g
           id="g357"
           transform="translate(70.8662,70.8662)"><path
             d="m 0,0 c 0,-7.828 -6.346,-14.173 -14.173,-14.173 -7.828,0 -14.174,6.345 -14.174,14.173 0,7.827 6.346,14.173 14.174,14.173 C -6.346,14.173 0,7.827 0,0"
             style="fill:#231f20;fill-opacity:1;fill-rule:nonzero;stroke:none"
             id="path359" /></g></g></g><text
       xml:space="preserve"
       style="font-style:normal;font-variant:normal;font-weight:normal;font-stretch:normal;font-size:2.11667px;font-family:sans-serif;-inkscape-font-specification:sans-serif;text-align:center;text-anchor:middle;fill:#000000;stroke:none;stroke-width:0.499999"
       x="102.47157"
       y="279.42886"
       id="text895"
       sodipodi:insensitive="true"><tspan
         sodipodi:role="line"
         id="tspan893"
         style="font-size:2.11667px;fill:#000000;stroke:none;stroke-width:0.5"
         x="102.47157"
         y="279.42886">Template for Inkscape Cutstudio Plugin </tspan><tspan
         sodipodi:role="line"
         style="font-size:2.11667px;fill:#000000;stroke:none;stroke-width:0.5"
         x="102.47157"
         y="282.07471"
         id="tspan1153">Do not edit markers and page size.</tspan><tspan
         sodipodi:role="line"
         style="font-size:2.11667px;fill:#000000;stroke:none;stroke-width:0.5"
         x="102.47157"
         y="284.72055"
         id="tspan1195">Do not remove this text.</tspan><tspan
         sodipodi:role="line"
         style="font-size:2.11667px;fill:#000000;stroke:none;stroke-width:0.5"
         x="102.47157"
         y="287.36636"
         id="tspan1155">INKSCAPE_CUTSTUDIO_CROPMARK_SETTINGS={&quot;version&quot;:1, &quot;pageW&quot;:210, &quot;pageH&quot;:297, &quot;dx&quot;:20, &quot;dy&quot;:25, &quot;W&quot;:170, &quot;H&quot;:210}</tspan></text><g
       id="g1115"><rect
         style="fill:#ececec;stroke:none;stroke-width:0.714492"
         id="rect949"
         width="159.99992"
         height="200.00009"
         x="25.000021"
         y="67.000061" /><text
         xml:space="preserve"
         style="font-style:normal;font-variant:normal;font-weight:normal;font-stretch:normal;font-size:5.17141px;font-family:sans-serif;-inkscape-font-specification:sans-serif;text-align:center;text-anchor:middle;fill:#000000;stroke:none;stroke-width:0.814393"
         x="110.07444"
         y="147.25887"
         id="text1005"><tspan
           sodipodi:role="line"
           style="fill:#000000;stroke-width:0.814395"
           x="110.07444"
           y="147.25887"
           id="tspan1106">This area is usable for cutting</tspan></text></g></g></svg>
